<?xml version="1.0" standalone="yes"?>
<!DOCTYPE svg PUBLIC "-//W3C//DTD SVG 1.1//EN"
 "http://www.w3.org/Graphics/SVG/1.1/DTD/svg11.dtd">
<svg xmlns="http://www.w3.org/2000/svg" version="1.1"
  width="100%" height="100%" viewBox="0 0 1024 768"
  style="fill: none; font-family: Helvetica;
 font: Helvetica;
">

<!-- Creator: NGspice -->

<rect x="0" y="0" width="1024" height="768" fill="white" stroke="none"/>
<text stroke="none" fill="black" font-size="16" x="358" y="752">
time
</text>
<text stroke="none" fill="black" font-size="16" x="10" y="16">
tran1: current comparator simulation
</text>
<path stroke="black" d="M60 712l0 -650"/>
<text stroke="none" fill="black" font-size="16" x="45" y="728">
0.0
</text>
<path stroke="black" stroke-dasharray="1,2" d="M210 712l0 -650"/>
<text stroke="none" fill="black" font-size="16" x="190" y="728">
20.0
</text>
<path stroke="black" stroke-dasharray="1,2" d="M360 712l0 -650"/>
<text stroke="none" fill="black" font-size="16" x="340" y="728">
40.0
</text>
<path stroke="black" stroke-dasharray="1,2" d="M510 712l0 -650"/>
<text stroke="none" fill="black" font-size="16" x="490" y="728">
60.0
</text>
<path stroke="black" stroke-dasharray="1,2" d="M660 712l0 -650"/>
<text stroke="none" fill="black" font-size="16" x="640" y="728">
80.0
</text>
<path stroke="black" stroke-dasharray="1,2" d="M810 712l0 -650"/>
<text stroke="none" fill="black" font-size="16" x="785" y="728">
100.0
</text>
<path stroke="black" stroke-dasharray="1,2" d="M960 712l0 -650"/>
<text stroke="none" fill="black" font-size="16" x="935" y="728">
120.0
</text>
<text stroke="none" fill="black" font-size="16" x="614" y="752">
ns
</text>
<path stroke="black" stroke-dasharray="1,2" d="M60 712l900 0"/>
<text stroke="none" fill="black" font-size="16" x="8" y="720">
-2.00
</text>
<path stroke="black" stroke-dasharray="1,2" d="M60 647l900 0"/>
<text stroke="none" fill="black" font-size="16" x="8" y="655">
-1.90
</text>
<path stroke="black" stroke-dasharray="1,2" d="M60 582l900 0"/>
<text stroke="none" fill="black" font-size="16" x="8" y="590">
-1.80
</text>
<path stroke="black" stroke-dasharray="1,2" d="M60 517l900 0"/>
<text stroke="none" fill="black" font-size="16" x="8" y="525">
-1.70
</text>
<path stroke="black" stroke-dasharray="1,2" d="M60 452l900 0"/>
<text stroke="none" fill="black" font-size="16" x="8" y="460">
-1.60
</text>
<path stroke="black" stroke-dasharray="1,2" d="M60 387l900 0"/>
<text stroke="none" fill="black" font-size="16" x="8" y="395">
-1.50
</text>
<path stroke="black" stroke-dasharray="1,2" d="M60 322l900 0"/>
<text stroke="none" fill="black" font-size="16" x="8" y="330">
-1.40
</text>
<path stroke="black" stroke-dasharray="1,2" d="M60 257l900 0"/>
<text stroke="none" fill="black" font-size="16" x="8" y="265">
-1.30
</text>
<path stroke="black" stroke-dasharray="1,2" d="M60 192l900 0"/>
<text stroke="none" fill="black" font-size="16" x="8" y="200">
-1.20
</text>
<path stroke="black" stroke-dasharray="1,2" d="M60 127l900 0"/>
<text stroke="none" fill="black" font-size="16" x="8" y="135">
-1.10
</text>
<path stroke="black" stroke-dasharray="1,2" d="M60 62l900 0"/>
<text stroke="none" fill="black" font-size="16" x="8" y="70">
-1.00
</text>
<text stroke="none" fill="black" font-size="16" x="10" y="32">
mA
</text>
<path stroke="red" d="M450 23l45 0"/>
<text stroke="none" fill="black" font-size="16" x="505" y="32">
i(vdd)
</text>
<path stroke="red" d="M60 643l1 0 1 0 1 0 1 0 1 0 1 0 1 0 1 0 1 0 1 0 1 0 1 0 1 0 1 0 1 0 1 0 1 0 1 0 1 0 1 0 1 0 1 0 1 0 1 0 1 0 1 0 1 0 1 0 1 0 1 0 1 0 1 0 1 0 1 0 1 0 1 0 1 0 1 0 0 -159 0 -15 0 -2 0 32 0 102 0 3 0 -4 0 2 0 -3 0 3 0 -2 0 3"/>
<path stroke="red" d="M98 603l0 -3 0 3 0 -3 0 3 0 -3 0 3 0 -3 1 3 0 -3 0 3 0 -3 0 3 0 -3 0 2 0 -2 0 2 0 -2 0 2 0 -2 0 2 1 -2 0 2 0 -2 0 2 0 -2 0 2 0 -2 0 2 0 -2 0 2 0 -2 0 2 0 -2 1 2 0 -2 0 2 0 -2 0 2 0 -2 0 2 0 -2 0 2 0 -2 0 2 0 -2 0 2 0 -2"/>
<path stroke="red" d="M101 600l1 2 0 -2 0 2 0 -2 0 2 0 -2 0 2 0 -2 0 2 0 -2 0 2 0 -2 0 2 1 -2 0 2 0 -2 0 2 0 -2 0 2 0 -2 0 2 0 -2 0 2 0 -2 0 2 0 -2 1 2 0 -2 0 2 0 -2 0 2 0 -2 0 2 0 -2 0 2 0 -2 0 2 0 -2 0 2 0 -2 1 2 0 -2 0 2 0 -2 0 2 0 -2 0 2"/>
<path stroke="red" d="M105 602l0 -2 0 2 0 -2 0 2 0 -2 0 2 1 -2 0 2 0 -2 0 2 0 -2 0 2 0 -2 0 2 0 -2 0 2 0 -2 0 2 0 -2 1 2 0 -2 0 2 0 -2 0 2 0 -2 0 2 0 -2 0 2 0 -2 0 2 0 -2 0 2 0 -2 1 2 0 -2 0 2 0 -2 0 2 0 -2 0 2 0 -2 0 2 0 -1 0 1 0 -1 0 1 1 -1"/>
<path stroke="red" d="M109 601l0 1 0 -1 1 0 1 0 1 0 1 0 1 0 1 0 1 0 1 0 1 0 1 0 1 0 1 0 1 0 1 0 1 0 1 0 1 0 1 0 1 0 1 0 1 0 1 0 1 0 1 0 1 0 1 0 0 -154 0 -15 0 -4 0 31 0 96 0 3 0 -5 0 2 0 -4 0 3 0 -3 0 3 1 -2 0 2 0 -2 0 2 0 -2 0 2 0 -2 0 2 0 -2"/>
<path stroke="red" d="M136 552l0 2 0 -2 0 2 0 -2 1 2 0 -2 0 2 0 -2 0 2 0 -2 0 2 0 -2 0 2 0 -2 0 2 0 -2 0 2 0 -2 1 2 0 -2 0 2 0 -2 0 2 0 -2 0 2 0 -2 0 2 0 -2 0 2 0 -2 0 2 1 -2 0 2 0 -2 0 2 0 -2 0 2 0 -2 0 2 0 -2 0 2 0 -2 0 2 0 -2 1 2 0 -2 0 2"/>
<path stroke="red" d="M140 554l0 -2 0 2 0 -2 0 2 0 -2 0 2 0 -2 0 2 0 -2 0 2 0 -2 1 2 0 -2 0 2 0 -2 0 2 0 -2 0 2 0 -2 0 2 0 -2 0 2 0 -2 0 2 1 -2 0 2 0 -2 0 2 0 -2 0 2 0 -2 0 2 0 -2 0 2 0 -2 0 2 0 -2 1 2 0 -2 0 2 0 -2 0 1 0 -1 0 1 0 -1 0 1 0 -1"/>
<path stroke="red" d="M143 552l0 1 0 -1 0 1 0 -1 1 1 0 -1 0 1 0 -1 0 1 0 -1 0 1 0 -1 0 1 0 -1 0 1 0 -1 0 1 1 -1 0 1 0 -1 0 1 0 -1 0 1 0 -1 0 1 0 -1 0 1 0 -1 0 1 0 -1 1 1 0 -1 0 1 0 -1 0 1 0 -1 0 1 0 -1 0 1 0 -1 0 1 0 -1 0 1 0 -1 1 1 0 -1 0 1"/>
<path stroke="red" d="M147 553l0 -1 0 1 0 -1 0 1 0 -1 0 1 0 -1 0 1 0 -1 0 1 1 -1 0 1 0 -1 0 1 0 -1 0 1 0 -1 0 1 0 -1 0 1 0 -1 0 1 0 -1 1 1 0 -1 0 1 0 -1 0 1 0 -1 0 1 0 -1 0 1 0 -1 0 1 0 -1 0 1 0 -1 1 1 0 -1 0 1 0 -1 0 1 0 -1 0 1 0 -1 0 1 0 -1"/>
<path stroke="red" d="M150 552l0 1 0 -1 0 1 1 -1 0 1 0 -1 0 1 0 -1 0 1 0 -1 0 1 0 -1 0 1 0 -1 0 1 1 0 1 0 1 0 1 0 1 0 1 0 1 0 1 0 1 0 1 0 1 0 1 0 1 0 1 0 1 0 1 0 1 0 1 0 1 0 1 0 1 0 1 0 0 -155 0 -17 0 -5 0 30 0 97 0 2 0 -6 0 1 0 -4 0 3 0 -3 0 3"/>
<path stroke="red" d="M173 499l0 -3 0 3 0 -3 0 3 0 -3 0 3 0 -3 1 3 0 -3 0 3 0 -3 0 3 0 -3 0 3 0 -3 0 3 0 -3 0 3 0 -3 0 3 1 -3 0 3 0 -2 0 2 0 -2 0 2 0 -2 0 2 0 -2 0 2 0 -2 0 2 0 -2 1 2 0 -2 0 2 0 -2 0 2 0 -2 0 2 0 -2 0 2 0 -2 0 2 0 -2 0 2 0 -2"/>
<path stroke="red" d="M176 497l1 2 0 -2 0 2 0 -2 0 2 0 -2 0 2 0 -2 0 2 0 -2 0 2 0 -2 0 2 1 -2 0 2 0 -2 0 2 0 -2 0 2 0 -2 0 2 0 -2 0 2 0 -2 0 2 0 -2 1 1 0 -1 0 1 0 -1 0 1 0 -1 0 1 0 -1 0 1 0 -1 0 1 0 -1 0 1 0 -1 1 1 0 -1 0 1 0 -1 0 1 0 -1 0 1"/>
<path stroke="red" d="M180 498l0 -1 0 1 0 -1 0 1 0 -1 0 1 1 -1 0 1 0 -1 0 1 0 -1 0 1 0 -1 0 1 0 -1 0 1 0 -1 0 1 0 -1 1 1 0 -1 0 1 0 -1 0 1 0 -1 0 1 0 -1 0 1 0 -1 0 1 0 -1 0 1 0 -1 1 1 0 -1 0 1 0 -1 0 1 0 -1 0 1 0 -1 0 1 0 -1 0 1 0 -1 0 1 1 -1"/>
<path stroke="red" d="M184 497l0 1 0 -1 0 1 0 -1 0 1 0 -1 0 1 0 -1 0 1 0 -1 0 1 0 -1 1 1 0 -1 0 1 0 -1 0 1 0 -1 0 1 0 -1 0 1 0 -1 0 1 0 -1 0 1 0 -1 1 1 0 -1 0 1 0 -1 0 1 0 -1 0 1 0 -1 0 1 0 -1 0 1 0 -1 0 1 1 -1 0 1 0 -1 0 1 0 -1 0 1 0 -1 0 1"/>
<path stroke="red" d="M187 498l0 -1 0 1 0 -1 0 1 0 -1 1 1 0 -1 0 1 0 -1 0 1 0 -1 0 1 0 -1 0 1 0 -1 0 1 0 -1 0 1 0 -1 1 1 0 -1 0 1 0 -1 0 1 0 -1 0 1 0 -1 0 1 0 -1 0 1 0 -1 0 1 1 -1 0 1 0 -1 0 1 0 -1 0 1 0 -1 0 1 0 -1 0 1 0 -1 0 1 0 -1 1 1 0 -1"/>
<path stroke="red" d="M191 497l0 1 0 -1 0 1 0 -1 0 1 0 -1 0 1 0 -1 0 1 0 -1 0 1 0 -1 1 1 0 -1 0 1 0 -1 0 1 0 -1 0 1 0 -1 0 1 0 -1 0 1 0 -1 0 1 1 -1 0 1 0 -1 0 1 0 -1 0 1 0 -1 0 1 0 -1 0 1 0 -1 0 1 0 -1 1 1 0 -1 0 1 0 -1 0 1 0 -1 0 1 0 -1 0 1"/>
<path stroke="red" d="M194 498l0 -1 0 1 0 -1 0 1 0 -1 1 1 0 -1 0 1 0 -1 0 1 0 -1 0 1 0 -1 0 1 0 -1 0 1 0 -1 0 1 1 -1 0 1 0 -1 0 1 0 -1 0 1 0 -1 0 1 0 -1 0 1 0 -1 0 1 0 -1 1 1 0 -1 0 1 1 0 1 0 1 0 1 0 1 0 1 0 1 0 1 0 1 0 1 0 1 0 1 0 1 0 0 -61"/>
<path stroke="red" d="M210 437l0 -40 0 -33 0 24 0 11 0 1 0 -5 0 -5 0 3 0 -3 0 3 1 -3 0 3 0 -3 0 3 0 -3 0 3 0 -3 0 3 0 -3 0 3 0 -3 0 3 0 -3 1 3 0 -2 0 2 0 -2 0 2 0 -2 0 2 0 -2 0 2 0 -2 0 2 0 -2 0 2 0 -2 1 2 0 -2 0 2 0 -2 0 2 0 -2 0 2 0 -2 0 2"/>
<path stroke="red" d="M213 393l0 -2 0 2 0 -2 0 2 1 -2 0 2 0 -2 0 2 0 -2 0 2 0 -2 0 2 0 -2 0 2 0 -2 0 2 0 -2 1 2 0 -2 0 2 0 -2 0 2 0 -2 0 2 0 -2 0 2 0 -2 0 2 0 -2 0 2 0 -2 1 2 0 -2 0 2 0 -2 0 2 0 -2 0 2 0 -2 0 2 0 -2 0 2 0 -2 0 2 1 -2 0 2 0 -2"/>
<path stroke="red" d="M217 391l0 2 0 -2 0 1 0 -1 0 1 0 -1 0 1 0 -1 0 1 0 -1 1 1 0 -1 0 1 0 -1 0 1 0 -1 0 1 0 -1 0 1 0 -1 0 1 0 -1 0 1 0 -1 1 1 0 -1 0 1 0 -1 0 1 0 -1 0 1 0 -1 0 1 0 -1 0 1 0 -1 0 1 1 -1 0 1 0 -1 0 1 0 -1 0 1 0 -1 0 1 0 -1 0 1"/>
<path stroke="red" d="M220 392l0 -1 0 1 0 -1 1 1 0 -1 0 1 0 -1 0 1 0 -1 0 1 0 -1 0 1 0 -1 0 1 0 -1 0 1 0 -1 1 1 0 -1 0 1 0 -1 0 1 0 -1 0 1 0 -1 0 1 0 -1 0 1 0 -1 0 1 1 -1 0 1 0 -1 0 1 0 -1 0 1 0 -1 0 1 0 -1 0 1 0 -1 0 1 0 -1 1 1 0 -1 0 1 0 -1"/>
<path stroke="red" d="M224 391l0 1 0 -1 0 1 0 -1 0 1 0 -1 0 1 0 -1 0 1 0 -1 1 1 0 -1 0 1 0 -1 0 1 0 -1 0 1 0 -1 0 1 0 -1 0 1 0 -1 0 1 1 -1 0 1 0 -1 0 1 0 -1 0 1 0 -1 0 1 0 -1 0 1 0 -1 0 1 0 -1 1 1 0 -1 0 1 0 -1 0 1 0 -1 0 1 0 -1 0 1 0 -1 0 1"/>
<path stroke="red" d="M227 392l0 -1 0 1 0 -1 1 1 0 -1 0 1 0 -1 0 1 0 -1 0 1 0 -1 0 1 1 0 1 0 1 0 1 0 1 0 1 0 1 0 1 0 1 0 1 0 1 0 1 0 1 0 1 0 1 0 1 0 1 0 1 0 1 0 1 0 0 116 0 8 0 52 0 13 0 -138 0 2 0 5 0 3 0 3 0 -1 0 1 0 -2 0 2 0 -2 0 2 0 -2 0 1"/>
<path stroke="red" d="M248 455l0 -1 1 2 0 -2 0 2 0 -2 0 2 0 -2 0 2 0 -2 0 2 0 -2 0 2 0 -2 0 2 1 -2 0 2 0 -2 0 2 0 -2 0 2 0 -2 0 2 0 -1 0 1 0 -1 1 0 1 0 1 0 1 0 1 0 1 0 1 0 1 0 1 0 1 0 1 0 1 0 1 0 1 0 1 0 1 0 1 0 1 0 1 0 1 0 1 0 1 0 1 0 1 0 1 0"/>
<path stroke="red" d="M275 455l1 0 1 0 1 0 1 0 1 0 1 0 1 0 1 0 1 0 1 0 0 111 0 8 0 52 0 10 0 -133 0 1 0 4 0 1 0 2 0 -1 0 1 1 -1 0 1 0 -1 0 1 0 -1 0 1 0 -1 0 1 0 -1 0 1 0 -1 0 1 0 -1 1 1 0 -1 0 1 0 -1 0 1 0 -1 0 1 0 -1 0 1 0 -1 0 1 0 -1 0 1 0 -1"/>
<path stroke="red" d="M287 510l1 1 0 -1 0 1 0 -1 0 1 0 -1 0 1 0 -1 0 1 0 -1 0 1 0 -1 0 1 1 -1 0 1 0 -1 0 1 0 -1 0 1 0 -1 0 1 0 -1 0 1 0 -1 0 1 0 -1 1 1 0 -1 0 1 0 -1 0 1 0 -1 0 1 0 -1 0 1 0 -1 0 1 0 -1 0 1 0 -1 1 1 0 -1 0 1 0 -1 0 1 0 -1 0 1"/>
<path stroke="red" d="M291 511l0 -1 0 1 0 -1 0 1 0 -1 0 1 1 -1 0 1 0 -1 0 1 0 -1 0 1 0 -1 0 1 0 -1 0 1 0 -1 0 1 0 -1 1 1 0 -1 0 1 0 -1 0 1 0 -1 0 1 0 -1 0 1 0 -1 0 1 0 -1 0 1 0 -1 1 1 0 -1 0 1 0 -1 0 1 0 -1 0 1 0 -1 0 1 0 -1 0 1 0 -1 0 1 1 -1"/>
<path stroke="red" d="M295 510l0 1 0 -1 0 1 0 -1 0 1 0 -1 1 0 1 0 1 0 1 0 1 0 1 0 1 0 1 0 1 0 1 0 1 0 1 0 1 0 1 0 1 0 1 0 1 0 1 0 1 0 1 0 1 0 1 0 1 0 1 0 1 0 1 0 1 0 1 0 0 113 0 8 0 53 0 8 0 -136 0 -1 0 3 0 1 0 -1 0 1 0 -1 0 1 0 -1 0 1 0 -1 0 1"/>
<path stroke="red" d="M323 559l0 -1 1 1 0 -1 0 1 0 -1 0 1 0 -1 0 1 0 -1 0 1 0 -1 0 1 0 -1 0 1 1 -1 0 1 0 -1 0 1 0 -1 0 1 0 -1 0 1 0 -1 0 1 0 -1 0 1 0 -1 1 1 0 -1 0 1 0 -1 0 1 0 -1 0 1 0 -1 0 1 0 -1 0 1 0 -1 0 1 0 -1 1 1 0 -1 0 1 0 -1 0 1 0 -1"/>
<path stroke="red" d="M327 558l0 1 0 -1 0 1 0 -1 0 1 0 -1 0 1 1 -1 0 1 0 -1 0 1 0 -1 0 1 0 -1 0 1 0 -1 0 1 0 -1 0 1 0 -1 1 1 0 -1 0 1 0 -1 0 1 0 -1 0 1 0 -1 0 1 0 -1 0 1 0 -1 0 1 0 -1 1 1 0 -1 0 1 0 -1 0 1 0 -1 0 1 0 -1 0 1 0 -1 0 1 0 -1 0 1"/>
<path stroke="red" d="M330 559l1 -1 0 1 0 -1 0 1 0 -1 0 1 0 -1 0 1 0 -1 0 1 0 -1 0 1 0 -1 1 1 0 -1 0 1 0 -1 0 1 0 -1 0 1 0 -1 0 1 0 -1 0 1 0 -1 0 1 0 -1 1 1 0 -1 0 1 0 -1 0 1 0 -1 0 1 0 -1 0 1 0 -1 0 1 0 -1 0 1 1 -1 0 1 0 -1 0 1 0 -1 0 1 0 -1"/>
<path stroke="red" d="M334 558l0 1 0 -1 0 1 0 -1 0 1 0 -1 1 1 0 -1 0 1 0 -1 0 1 0 -1 0 1 0 -1 0 1 0 -1 0 1 0 -1 0 1 0 -1 1 1 0 -1 0 1 0 -1 0 1 0 -1 0 1 0 -1 0 1 0 -1 0 1 0 -1 0 1 1 -1 0 1 0 -1 0 1 0 -1 0 1 0 -1 0 1 0 -1 0 1 0 -1 0 1 0 -1 1 1"/>
<path stroke="red" d="M338 559l0 -1 0 1 0 -1 0 1 0 -1 0 1 0 -1 0 1 0 -1 0 1 0 -1 0 1 0 -1 1 1 0 -1 0 1 1 0 1 0 1 0 1 0 1 0 1 0 1 0 1 0 1 0 1 0 1 0 1 0 1 0 1 0 1 0 1 0 1 0 1 0 1 0 1 0 1 0 0 61 0 -24 0 -27 0 -7 0 60 0 5 0 37 0 32 0 -145 0 -1 0 1"/>
<path stroke="red" d="M360 551l0 -1 0 1 0 -2 0 2 1 -2 0 2 0 -2 0 2 0 -2 0 1 0 -1 0 1 0 -1 0 1 0 -1 0 1 0 -1 0 1 1 -2 0 2 0 -2 0 2 0 -1 0 1 0 -1 0 2 0 -1 0 1 0 -1 0 2 0 -1 1 1 0 -1 0 1 0 -2 0 2 0 -2 0 2 0 -1 0 1 0 -1 0 1 0 -1 0 1 1 -1 0 1 0 -1"/>
<path stroke="red" d="M364 551l0 1 0 -1 0 1 0 -1 0 1 0 -1 0 1 0 -1 0 1 0 -1 0 1 1 -1 0 1 0 -1 0 -1 0 1 0 -1 0 -1 0 -1 0 1 0 -2 1 1 0 -1 0 1 0 -1 0 -1 0 1 0 -1 0 1 0 -1 0 1 0 -1 0 1 1 -1 0 1 0 -1 0 1 0 -1 0 1 0 -1 0 1 0 -1 0 1 0 -1 0 1 0 -1 0 1"/>
<path stroke="red" d="M367 547l1 -1 0 1 0 -1 0 1 0 -1 0 1 0 -1 0 1 0 -1 0 1 0 -1 0 1 0 -1 1 1 0 -1 0 1 0 -1 0 1 0 -1 0 1 0 -1 0 1 0 -1 0 1 0 -1 0 1 1 -1 0 1 0 -1 0 1 0 -1 0 1 0 -1 0 1 0 -1 0 1 0 -1 0 1 0 -1 0 1 1 -1 0 1 0 -1 0 1 0 -1 0 1 0 -1"/>
<path stroke="red" d="M371 546l0 1 0 -1 0 1 0 -1 0 1 0 -1 1 1 0 -1 0 1 0 -1 0 1 0 -1 0 1 0 -1 0 1 0 -1 0 1 0 -1 0 1 1 -1 0 1 0 -1 0 1 0 -1 0 1 0 -1 0 1 0 -1 0 1 0 -1 0 1 0 -1 0 1 1 -1 0 1 0 -1 0 1 0 -1 0 1 0 -1 0 1 0 -1 0 1 0 -1 0 1 0 -1 1 1"/>
<path stroke="red" d="M375 547l0 -1 0 1 0 -1 0 1 0 -1 0 1 0 -1 0 1 0 -1 0 1 0 -1 0 1 1 -1 0 1 0 -1 0 1 0 -1 0 1 0 -1 0 1 0 -1 0 1 0 -1 0 1 0 -1 0 1 1 -1 0 1 0 -1 0 1 0 -1 0 1 0 -1 0 1 0 -1 0 1 0 -1 0 1 0 -1 1 1 0 -1 0 1 0 -1 0 1 0 -1 0 1 0 -1"/>
<path stroke="red" d="M378 546l0 1 0 -1 0 1 0 -1 0 1 1 -1 0 1 0 -1 0 1 0 -1 0 1 0 -1 0 1 0 -1 0 1 0 -1 0 1 0 -1 0 1 1 -1 0 1 0 -1 0 1 0 -1 0 1 1 0 1 0 1 0 1 0 1 0 1 0 1 0 1 0 1 0 1 0 1 0 1 0 1 0 1 0 1 0 1 0 1 0 1 0 0 -158 0 -12 0 -15 0 37 0 105"/>
<path stroke="red" d="M398 504l0 4 0 -5 0 4 0 -4 0 3 0 -3 0 4 0 -4 0 4 0 -4 0 4 0 -3 0 3 0 -3 1 3 0 -3 0 3 0 -3 0 3 0 -3 0 3 0 -3 0 3 0 -3 0 3 0 -3 0 3 1 -3 0 3 0 -3 0 3 0 -3 0 3 0 -2 0 2 0 -2 0 2 0 -2 0 2 0 -2 0 3 1 -3 0 3 0 -3 0 3 0 -3 0 3"/>
<path stroke="red" d="M401 508l0 -3 0 3 0 -3 0 3 0 -3 0 3 0 -2 1 2 0 -2 0 2 0 -2 0 2 0 -2 0 2 0 -2 0 3 0 -3 0 3 0 -2 0 2 1 -2 0 2 0 -2 0 2 0 -2 0 2 0 -2 0 2 0 -2 0 3 0 -2 0 2 0 -2 0 2 1 -2 0 2 0 -2 0 2 0 -2 0 2 0 -1 0 2 0 -2 0 2 0 -2 0 2 0 -2"/>
<path stroke="red" d="M404 509l1 2 0 -2 0 2 0 -1 0 1 0 -1 0 2 0 -2 0 2 0 -2 0 2 0 -2 0 2 1 -2 0 2 0 -1 0 1 0 -1 0 1 0 -1 0 1 0 -1 0 2 0 -2 0 2 0 -2 0 2 1 -2 0 2 0 -1 0 1 0 -1 0 1 0 -1 0 1 0 -1 0 1 0 -1 0 1 0 -1 1 1 0 -1 0 2 0 -2 0 2 0 -2 0 2"/>
<path stroke="red" d="M408 514l0 -2 0 2 0 -1 0 1 0 -1 0 1 1 -1 0 1 0 -1 0 1 0 -1 0 1 0 -1 0 1 0 -1 0 1 0 -1 0 1 0 -1 0 1 1 -1 0 1 0 -1 0 1 0 -1 0 1 0 -1 0 1 0 -1 0 2 0 -2 0 2 0 -1 1 1 0 -1 0 1 0 -1 0 1 0 -1 0 1 0 -1 0 1 0 -1 0 1 0 -1 0 1 1 -1"/>
<path stroke="red" d="M412 514l0 1 0 -1 0 1 0 -1 0 1 0 -1 0 1 0 -1 0 1 0 -1 0 1 0 -1 0 1 1 -1 0 1 0 -1 0 1 0 -1 0 1 0 -1 0 1 0 -1 0 1 0 -1 0 1 0 -1 1 1 0 -1 0 1 0 -1 0 1 0 -1 0 1 0 -1 0 1 0 -1 0 1 0 -1 0 1 1 -1 0 1 0 -1 0 1 0 -1 0 1 0 -1 0 1"/>
<path stroke="red" d="M415 515l0 -1 0 1 0 -1 0 1 0 -1 0 1 1 -1 0 1 0 -1 0 1 0 -1 0 1 0 -1 0 1 0 -1 0 1 0 -1 0 1 1 0 1 0 1 0 1 0 1 0 1 0 1 0 1 0 1 0 1 0 1 0 1 0 1 0 1 0 1 0 1 0 1 0 1 0 1 0 0 -154 0 -15 0 -4 0 31 0 96 0 3 0 -5 0 2 0 -4 0 4 0 -3"/>
<path stroke="red" d="M435 466l0 4 1 -2 0 5 0 -2 0 5 0 -2 0 5 0 -1 0 5 0 5 0 -1 0 5 1 5 0 5 0 -1 0 5 0 4 0 4 0 -1 0 4 0 -1 0 4 0 -2 1 4 0 -2 0 3 0 -3 0 3 0 -3 0 1 0 -4 0 -4 0 -1 0 -5 0 -1 1 -6 0 -1 0 -5 0 -1 0 -5 0 -1 0 -5 0 -4 0 -1 0 -3 0 -4"/>
<path stroke="red" d="M439 470l1 1 0 -3 0 -2 0 1 0 -3 0 1 0 -2 0 1 0 -2 0 1 0 -2 0 1 0 -2 1 2 0 -2 0 1 0 -2 0 2 0 -2 0 2 0 -2 0 1 0 -1 0 1 0 -1 0 1 1 -1 0 1 0 -1 0 1 0 -1 0 1 0 -1 0 1 0 -2 0 2 0 -2 0 2 0 -2 1 2 0 -2 0 2 0 -2 0 2 0 -2 0 2 0 -2"/>
<path stroke="red" d="M443 458l0 2 0 -2 0 2 0 -2 0 2 0 -2 1 2 0 -2 0 2 0 -1 0 1 0 -1 0 1 0 -1 0 1 0 -1 0 1 0 -1 0 1 1 -1 0 1 0 -1 0 1 0 -1 0 1 0 -1 0 1 0 -1 0 1 0 -1 0 1 0 -1 1 1 0 -1 0 1 0 -1 0 1 0 -1 0 1 0 -1 0 1 0 -1 0 1 0 -1 0 1 0 -1 1 1"/>
<path stroke="red" d="M447 460l0 -1 0 1 0 -1 0 1 0 -1 0 1 0 -1 0 1 0 -1 0 1 0 -1 0 1 1 -1 0 1 0 -1 0 1 0 -1 0 1 0 -1 0 1 0 -1 0 1 0 -1 0 1 0 -1 1 1 0 -1 0 1 0 -1 0 1 0 -1 0 1 0 -1 1 0 1 0 1 0 1 0 1 0 1 0 1 0 1 0 1 0 1 0 1 0 1 0 1 0 1 0 1 0 1 0"/>
<path stroke="red" d="M465 459l1 0 1 0 1 0 1 0 1 0 1 0 1 0 1 0 0 -155 0 -17 0 -5 0 30 0 97 0 2 0 -5 0 -4 0 3 0 -3 0 3 0 -3 0 3 0 -2 0 2 0 -2 0 2 0 -2 1 2 0 -2 0 2 0 -3 0 3 0 -3 0 3 0 -3 0 3 0 -3 0 3 0 -3 0 3 1 -3 0 3 0 -3 0 3 0 -3 0 3 0 -3 0 3"/>
<path stroke="red" d="M475 405l0 -2 0 2 0 -2 0 2 0 -2 1 2 0 -2 0 2 0 -2 0 2 0 -2 0 2 0 -2 0 2 0 -2 0 2 0 -2 0 2 0 -2 1 2 0 -2 0 2 0 -2 0 2 0 -2 0 2 0 -2 0 2 0 -2 0 2 0 -2 0 2 1 -2 0 2 0 -2 0 1 0 -1 0 1 0 -1 0 1 0 -1 0 1 0 -1 0 1 0 -1 1 1 0 -1"/>
<path stroke="red" d="M479 403l0 1 0 -1 0 1 0 -1 0 1 0 -1 0 1 0 -1 0 1 0 -1 0 1 0 -1 1 1 0 -1 0 1 0 -1 0 1 0 -1 0 1 0 -1 0 1 0 -1 0 1 0 -1 0 1 1 -1 0 1 0 -1 0 1 0 -1 0 1 0 -1 0 1 0 -1 0 1 0 -1 0 1 0 -1 1 1 0 -1 0 1 0 -1 0 1 0 -1 0 1 0 -1 0 1"/>
<path stroke="red" d="M482 404l0 -1 0 1 0 -1 0 1 0 -1 1 1 0 -1 0 1 0 -1 0 1 0 -1 0 1 0 -1 0 1 0 -1 0 1 0 -1 0 1 1 -1 0 1 0 -1 0 1 0 -1 0 1 0 -1 0 1 0 -1 0 1 0 -1 0 1 0 -1 1 1 0 -1 0 1 0 -1 0 1 0 -1 0 1 0 -1 0 1 0 -1 0 1 0 -1 0 1 0 -1 1 1 0 -1"/>
<path stroke="red" d="M486 403l0 1 0 -1 0 1 0 -1 0 1 0 -1 0 1 0 -1 0 1 0 -1 0 1 1 -1 0 1 0 -1 0 1 0 -1 0 1 0 -1 0 1 0 -1 0 1 0 -1 0 1 0 -1 1 1 0 -1 0 1 0 -1 0 1 0 -1 0 1 0 -1 0 1 0 -1 0 1 0 -1 0 1 0 -1 1 1 0 -1 0 1 0 -1 0 1 0 -1 0 1 0 -1 0 1"/>
<path stroke="red" d="M489 404l0 -1 0 1 0 -1 0 1 1 -1 0 1 0 -1 0 1 0 -1 0 1 0 -1 0 1 0 -1 0 1 0 -1 0 1 0 -1 1 1 0 -1 0 1 0 -1 0 1 0 -1 0 1 0 -1 0 1 0 -1 0 1 0 -1 0 1 0 -1 1 1 0 -1 0 1 0 -1 0 1 0 -1 0 1 0 -1 0 1 0 -1 0 1 0 -1 0 1 1 -1 0 1 0 -1"/>
<path stroke="red" d="M493 403l0 1 0 -1 0 1 0 -1 0 1 0 -1 0 1 0 -1 0 1 0 -1 1 1 0 -1 0 1 0 -1 0 1 0 -1 0 1 0 -1 0 1 0 -1 0 1 0 -1 0 1 0 -1 1 1 0 -1 0 1 0 -1 0 1 0 -1 0 1 0 -1 0 1 0 -1 0 1 0 -1 0 1 1 -1 0 1 0 -1 0 1 0 -1 0 1 0 -1 0 1 0 -1 0 1"/>
<path stroke="red" d="M496 404l0 -1 0 1 0 -1 1 1 0 -1 0 1 0 -1 0 1 0 -1 0 1 0 -1 0 1 0 -1 0 1 0 -1 0 1 0 -1 1 1 0 -1 0 1 0 -1 0 1 0 -1 0 1 0 -1 0 1 0 -1 0 1 0 -1 0 1 1 -1 0 1 0 -1 0 1 0 -1 0 1 0 -1 0 1 0 -1 0 1 0 -1 0 1 0 -1 1 1 0 -1 0 1 0 -1"/>
<path stroke="red" d="M500 403l0 1 0 -1 0 1 0 -1 0 1 0 -1 0 1 0 -1 0 1 0 -1 1 1 0 -1 0 1 0 -1 0 1 0 -1 0 1 0 -1 0 1 0 -1 0 1 0 -1 0 1 1 -1 0 1 0 -1 0 1 0 -1 0 1 0 -1 0 1 0 -1 0 1 0 -1 0 1 0 -1 1 1 0 -1 0 1 0 -1 0 1 0 -1 0 1 0 -1 0 1 0 -1 0 1"/>
<path stroke="red" d="M503 404l0 -1 0 1 0 -1 1 1 0 -1 0 1 0 -1 0 1 1 0 1 0 1 0 1 0 1 0 1 0 0 -100 0 -44 0 -35 0 20 0 47 0 -8 0 -2 0 -6 0 2 0 -3 0 3 1 -3 0 3 0 -2 0 2 0 -2 0 2 0 -2 0 2 0 -2 0 2 0 -2 0 2 0 -2 1 2 0 -2 0 2 0 -2 0 2 0 -2 0 2 0 -2"/>
<path stroke="red" d="M512 276l0 2 0 -2 0 2 0 -2 0 2 0 -2 1 2 0 -2 0 2 0 -2 0 2 0 -2 0 2 0 -2 0 2 0 -2 0 2 0 -2 0 2 1 -2 0 2 0 -2 0 2 0 -2 0 2 0 -2 0 2 0 -2 0 2 0 -2 0 2 0 -2 1 2 0 -2 0 2 0 -2 0 2 0 -2 0 2 0 -2 0 2 0 -2 0 2 0 -2 0 2 0 -2 1 2"/>
<path stroke="red" d="M516 278l0 -2 0 2 0 -2 0 2 0 -2 0 2 0 -2 0 2 0 -2 0 2 0 -2 0 2 1 -2 0 2 0 -2 0 2 0 -2 0 2 0 -2 0 2 0 -2 0 2 0 -2 0 2 0 -2 1 2 0 -2 0 2 0 -2 0 2 0 -2 0 2 0 -2 0 2 0 -2 0 2 0 -2 0 2 0 -2 1 2 0 -2 0 2 0 -2 0 2 0 -2 0 1 0 -1"/>
<path stroke="red" d="M519 276l0 1 0 -1 0 1 0 -1 0 1 1 -1 0 1 0 -1 0 1 0 -1 0 1 0 -1 0 1 0 -1 0 1 0 -1 0 1 0 -1 1 1 0 -1 0 1 0 -1 0 1 0 -1 0 1 0 -1 0 1 0 -1 0 1 0 -1 0 1 0 -1 1 1 0 -1 0 1 0 -1 0 1 0 -1 0 1 0 -1 0 1 0 -1 0 1 0 -1 0 1 1 -1 0 1"/>
<path stroke="red" d="M523 277l0 -1 0 1 0 -1 0 1 0 -1 0 1 1 0 1 0 1 0 1 0 1 0 1 0 1 0 1 0 1 0 1 0 1 0 1 0 1 0 1 0 1 0 1 0 1 0 1 0 1 0 1 0 1 0 1 0 1 0 1 0 1 0 0 117 0 8 0 51 0 13 0 -138 0 2 0 5 0 3 0 3 0 -1 0 1 0 -1 0 1 0 -1 0 1 0 -1 0 1 0 -1"/>
<path stroke="red" d="M548 340l1 1 0 -1 0 1 0 -1 0 1 0 -1 0 1 0 -1 0 1 0 -1 0 1 0 -1 0 1 1 -1 0 1 0 -1 0 1 0 -1 0 1 0 -1 0 1 0 -1 0 1 0 -1 0 1 0 -1 1 1 0 -1 0 1 0 -1 0 1 0 -1 0 1 0 -1 0 1 0 -1 0 1 0 -1 0 1 0 -1 1 1 0 -1 0 1 0 -1 0 1 0 -1 0 1"/>
<path stroke="red" d="M552 341l0 -1 0 1 0 -1 0 1 0 -1 0 1 1 -1 0 1 0 -1 0 1 0 -1 0 1 0 -1 0 1 0 -1 0 1 0 -1 0 1 0 -1 1 1 0 -1 0 1 0 -1 0 1 0 -1 0 1 0 -1 0 1 0 -1 0 1 0 -1 0 1 0 -1 1 1 0 -1 0 1 0 -1 0 1 0 -1 0 1 0 -1 0 1 0 -1 0 1 0 -1 0 1 1 -1"/>
<path stroke="red" d="M556 340l0 1 0 -1 0 1 0 -1 0 1 0 -1 0 1 0 -1 0 1 0 -1 0 1 0 -1 1 1 0 -1 0 1 0 -1 0 1 0 -1 0 1 0 -1 0 1 0 -1 0 1 0 -1 0 1 0 -1 1 1 0 -1 0 1 0 -1 0 1 0 -1 0 1 0 -1 0 1 0 -1 0 1 0 -1 0 1 1 -1 0 1 0 -1 0 1 0 -1 0 1 0 -1 0 1"/>
<path stroke="red" d="M559 341l0 -1 0 1 0 -1 0 1 0 -1 1 1 0 -1 0 1 1 0 1 0 1 0 1 0 1 0 1 0 1 0 1 0 1 0 1 0 1 0 1 0 1 0 1 0 1 0 1 0 1 0 1 0 1 0 1 0 1 0 1 0 1 0 1 0 1 0 0 111 0 8 0 52 0 10 0 -134 0 1 0 4 0 2 0 2 0 -1 0 1 1 -1 0 1 0 -1 0 1 0 -1"/>
<path stroke="red" d="M586 396l0 1 0 -2 0 2 0 -2 0 2 0 -2 0 1 0 -1 1 1 0 -1 0 1 0 -1 0 1 0 -1 0 1 0 -1 0 1 0 -1 0 1 0 -1 0 1 0 -1 1 1 0 -1 0 1 0 -1 0 1 0 -1 0 1 0 -1 0 1 0 -1 0 1 0 -1 0 1 1 -1 0 1 0 -1 0 1 0 1 0 -1 0 1 0 -1 0 1 0 -1 0 1 1 1 0 -1"/>
<path stroke="red" d="M590 397l0 1 0 -1 0 1 0 1 0 -1 0 1 0 -1 0 1 0 -1 1 1 0 -1 0 1 0 -1 0 -1 0 1 1 -1 0 1 0 -1 0 1 0 -1 0 1 0 -1 0 1 0 -1 0 1 0 -1 0 1 0 -1 1 1 0 -1 0 1 0 -1 0 1 0 -1 0 1 0 -1 0 1 0 -1 0 1 0 -1 0 1 0 -1 1 1 0 -1 0 1 0 -1 0 1"/>
<path stroke="red" d="M594 398l0 -1 0 1 0 -1 0 1 0 -1 0 1 0 -1 0 1 1 -1 0 1 0 -1 0 1 0 -1 0 1 0 -1 0 1 0 -1 0 1 0 -1 0 1 0 -1 1 1 0 -1 0 1 0 -1 0 1 0 -1 1 0 0 -1 0 1 0 -1 1 0 1 0 0 -1 0 1 0 -1 0 1 0 -1 0 1 0 -1 0 1 0 -1 0 1 0 -1 0 1 0 -1 1 1"/>
<path stroke="red" d="M600 396l0 -1 0 1 0 -1 0 1 0 -1 0 1 0 -1 1 0 1 0 1 0 1 0 1 0 1 0 1 0 1 0 1 0 1 0 1 0 1 0 1 0 1 0 1 0 1 0 1 0 1 0 1 0 1 0 1 0 1 0 1 0 0 113 0 8 0 52 0 8 0 -136 0 3 0 -1 0 2 0 -1 0 1 0 -2 0 2 0 -2 0 1 0 -1 0 1 0 -1 1 1 0 -1"/>
<path stroke="red" d="M624 442l0 1 0 -1 0 1 0 -2 0 1 0 -1 0 1 0 -1 0 1 0 -1 0 1 1 -1 0 1 0 -1 0 1 0 -1 0 1 0 -1 0 1 0 -1 0 1 0 -1 0 1 0 -1 1 1 0 -1 0 1 0 -1 0 1 0 -1 0 1 0 -1 0 1 0 -1 0 1 0 -1 0 1 0 -1 1 1 0 -1 0 1 0 -1 0 1 0 -1 0 1 0 -1 0 1"/>
<path stroke="red" d="M627 442l0 -1 0 1 0 -1 0 1 1 -1 0 1 0 -1 0 1 0 -1 0 1 0 -1 0 1 0 -1 0 1 0 -1 0 1 0 -1 1 1 0 -1 0 1 0 -1 0 1 0 -1 0 1 0 -1 0 1 0 -1 0 1 0 -1 0 1 0 -1 1 1 0 -1 0 1 0 -1 0 1 0 -1 0 1 0 -1 0 1 0 -1 0 1 0 -1 0 1 1 -1 0 1 0 -1"/>
<path stroke="red" d="M631 441l0 1 0 -1 0 1 0 -1 0 1 0 -1 0 1 0 -1 0 1 0 -1 1 1 0 -1 0 1 0 -1 0 1 0 -1 0 1 0 -1 0 1 0 -1 0 1 0 -1 0 1 0 -1 1 1 0 -1 0 1 0 -1 0 1 0 -1 0 1 0 -1 0 1 0 -1 0 1 0 -1 0 1 1 -1 0 1 0 -1 0 1 0 -1 0 1 0 -1 0 1 0 -1 0 1"/>
<path stroke="red" d="M634 442l0 -1 0 1 0 -1 1 1 0 -1 0 1 0 -1 0 1 0 -1 0 1 0 -1 0 1 0 -1 0 1 0 -1 0 1 0 -1 1 1 0 -1 0 1 0 -1 0 1 0 -1 0 1 0 -1 0 1 0 -1 0 1 0 -1 0 1 1 -1 0 1 0 -1 0 1 0 -1 0 1 0 -1 0 1 0 -1 0 1 0 -1 0 1 0 -1 1 1 0 -1 0 1 0 -1"/>
<path stroke="red" d="M638 441l0 1 0 -1 0 1 0 -1 0 1 0 -1 0 1 0 -1 0 1 0 -1 1 1 0 -1 0 1 0 -1 0 1 0 -1 0 1 0 -1 0 1 0 -1 0 1 0 -1 0 1 1 -1 0 1 0 -1 0 1 0 -1 0 1 0 -1 0 1 0 -1 0 1 0 -1 0 1 0 -1 1 1 0 -1 0 1 0 -1 0 1 0 -1 0 1 0 -1 0 1 0 -1 0 1"/>
<path stroke="red" d="M641 442l0 -1 0 1 0 -1 1 1 0 -1 0 1 0 -1 0 1 0 -1 0 1 0 -1 0 1 0 -1 0 1 0 -1 0 1 1 -1 0 1 0 -1 0 1 0 -1 0 1 0 -1 0 1 0 -1 0 1 0 -1 0 1 0 -1 1 1 0 -1 1 0 1 0 1 0 1 0 1 0 1 0 1 0 1 0 1 0 1 0 1 0 1 0 0 1 0 -1 0 1 0 -1 0 1 1 -1"/>
<path stroke="red" d="M657 441l0 1 0 -1 0 1 0 -1 0 1 0 -1 0 1 0 -1 0 1 0 -1 0 1 0 -1 1 1 0 -1 0 1 0 -1 0 1 0 -1 0 1 0 -1 0 1 0 -1 0 1 0 -1 0 1 1 -1 0 1 0 -1 0 1 0 -1 0 1 0 -1 0 1 0 -1 0 1 0 -1 0 1 0 -1 0 1 1 -1 0 1 0 -1 0 1 0 -1 0 1 0 -1 0 54"/>
<path stroke="red" d="M660 495l0 -27 0 -29 0 -13 0 65 0 3 0 34 0 29 0 -145 0 -2 0 -3 0 1 0 -2 0 2 1 -1 0 2 0 -2 0 2 0 -2 0 2 0 -2 0 2 0 -2 0 2 0 -2 0 2 0 -2 0 2 1 -2 0 2 0 -2 0 2 0 -2 0 2 0 -2 0 1 0 -1 0 1 0 -1 0 1 0 -1 1 1 0 -1 0 1 0 -1 0 1"/>
<path stroke="red" d="M663 408l0 -1 0 1 0 -1 0 1 0 -1 0 1 0 -1 0 1 1 -1 0 1 0 -1 0 1 0 -1 0 1 0 -1 0 1 0 -1 0 1 0 -1 0 1 0 -1 0 1 1 -1 0 1 0 -1 0 1 0 -1 0 1 0 -1 0 1 0 -1 0 1 0 -1 0 1 0 -1 1 1 0 -1 0 1 0 -1 0 1 0 -1 0 1 0 -1 0 1 0 -1 0 1 0 -1"/>
<path stroke="red" d="M666 407l0 1 1 -1 0 1 0 -1 0 1 0 -1 0 1 0 -1 0 1 1 0 1 0 1 0 1 0 1 0 1 0 1 0 1 0 1 0 1 0 1 0 1 0 1 0 1 0 1 0 1 0 1 0 1 0 1 0 1 0 1 0 1 0 1 0 1 0 1 0 1 0 1 0 1 0 1 0 1 0 1 0 0 -158 0 -12 0 -15 0 38 0 104 0 4 0 -4 0 3 0 -4"/>
<path stroke="red" d="M698 364l0 3 0 -4 0 4 0 -4 0 4 0 -4 0 4 0 -4 0 4 0 -4 1 4 0 -4 0 4 0 -4 0 4 0 -4 0 3 0 -3 0 3 0 -3 0 3 0 -3 0 3 1 -3 0 3 0 -3 0 3 0 -3 0 3 0 -3 0 3 0 -3 0 3 0 -3 0 3 0 -2 0 2 1 -2 0 2 0 -2 0 2 0 -2 0 2 0 -2 0 2 0 -2 0 2"/>
<path stroke="red" d="M701 366l0 -2 0 2 0 -2 1 2 0 -2 0 2 0 -2 0 2 0 -2 0 2 0 -2 0 2 0 -2 0 2 0 -2 0 2 1 -2 0 2 0 -2 0 2 0 -2 0 2 0 -2 0 2 0 -2 0 2 0 -2 0 2 0 -2 0 2 1 -2 0 2 0 -2 0 2 0 -2 0 2 0 -2 0 2 0 -2 0 2 0 -2 0 2 0 -2 1 2 0 -2 0 2 0 -2"/>
<path stroke="red" d="M705 364l0 2 0 -2 0 2 0 -2 0 2 0 -2 0 2 0 -2 0 2 1 -2 0 2 0 -2 0 2 0 -2 0 2 0 -2 0 2 0 -2 0 2 0 -2 0 2 0 -2 0 2 1 -2 0 2 0 -2 0 2 0 -2 0 2 0 -2 0 2 0 -2 0 2 0 -2 0 2 0 -2 1 2 0 -2 0 2 0 -2 0 2 0 -2 0 2 0 -2 0 2 0 -2 0 2"/>
<path stroke="red" d="M708 366l0 -2 0 2 1 -2 0 1 0 -1 0 1 0 -1 0 1 0 -1 0 1 0 -1 0 1 0 -1 0 1 0 -1 0 1 1 -1 0 1 0 -1 0 1 0 -1 0 1 0 -1 0 1 0 -1 0 1 0 -1 0 1 0 -1 1 1 0 -1 0 1 0 -1 0 1 0 -1 0 1 0 -1 0 1 0 -1 0 1 0 -1 0 1 1 -1 0 1 0 -1 0 1 0 -1"/>
<path stroke="red" d="M712 364l0 1 0 -1 0 1 0 -1 0 1 0 -1 0 1 0 -1 0 1 1 -1 0 1 0 -1 0 1 0 -1 0 1 0 -1 0 1 0 -1 0 1 0 -1 0 1 0 -1 1 1 0 -1 0 1 0 -1 0 1 0 -1 0 1 0 -1 0 1 0 -1 0 1 0 -1 0 1 1 0 1 0 1 0 1 0 1 0 1 0 1 0 1 0 1 0 1 0 1 0 1 0 1 0 1 0"/>
<path stroke="red" d="M728 365l1 0 1 0 1 0 1 0 1 0 1 0 1 0 0 -154 0 -16 0 -3 0 31 0 96 0 3 0 -5 0 2 0 -4 0 3 0 -3 0 2 1 -3 0 3 0 -3 0 3 0 -3 0 3 0 -3 0 3 0 -3 0 3 0 -3 0 3 0 -3 1 3 0 -2 0 2 0 -2 0 2 0 -2 0 2 0 -2 0 2 0 -2 0 2 0 -2 0 2 0 -2 1 2"/>
<path stroke="red" d="M738 317l0 -2 0 2 0 -2 0 2 0 -2 0 2 0 -2 0 2 0 -2 0 2 0 -2 0 2 1 -2 0 2 0 -2 0 2 0 -2 0 2 0 -2 0 2 0 -2 0 2 0 -2 0 2 0 -2 1 2 0 -2 0 2 0 -2 0 2 0 -2 0 2 0 -2 0 2 0 -2 0 2 0 -2 0 2 0 -2 1 2 0 -2 0 2 0 -2 0 2 0 -2 0 2 0 -2"/>
<path stroke="red" d="M741 315l0 2 0 -2 0 2 0 -2 0 2 1 -2 0 2 0 -2 0 2 0 -2 0 2 0 -2 0 2 0 -2 0 2 0 -2 0 2 0 -2 1 2 0 -2 0 2 0 -2 0 1 0 -1 0 1 0 -1 0 1 0 -1 0 1 0 -1 0 1 0 -1 1 1 0 -1 0 1 0 -1 0 1 0 -1 0 1 0 -1 0 1 0 -1 0 1 0 -1 0 1 1 -1 0 1"/>
<path stroke="red" d="M745 316l0 -1 0 1 0 -1 0 1 0 -1 0 1 0 -1 0 1 0 -1 0 1 0 -1 1 1 0 -1 0 1 0 -1 0 1 0 -1 0 1 0 -1 0 1 0 -1 0 1 0 -1 0 1 0 -1 1 1 0 -1 0 1 0 -1 0 1 0 -1 0 1 0 -1 0 1 0 -1 0 1 0 -1 0 1 1 -1 0 1 0 -1 0 1 0 -1 0 1 0 -1 0 1 0 -1"/>
<path stroke="red" d="M748 315l0 1 0 -1 0 1 0 -1 1 1 0 -1 0 1 0 -1 0 1 0 -1 0 1 0 -1 0 1 0 -1 0 1 0 -1 0 1 0 -1 1 1 0 -1 0 1 0 -1 0 1 0 -1 0 1 0 -1 0 1 0 -1 0 1 0 -1 0 1 1 -1 0 1 0 -1 0 1 0 -1 0 1 0 -1 0 1 0 -1 0 1 0 -1 0 1 0 -1 1 1 0 -1 0 1"/>
<path stroke="red" d="M752 316l1 0 1 0 1 0 1 0 1 0 1 0 1 0 1 0 1 0 1 0 1 0 1 0 1 0 1 0 1 0 1 0 1 0 1 0 1 0 1 0 1 0 0 -155 0 -17 0 -5 0 30 0 97 0 2 0 -6 0 1 0 -4 0 3 0 -3 0 3 0 -3 0 3 0 -3 0 3 0 -3 0 3 0 -3 1 3 0 -3 0 3 0 -3 0 3 0 -3 0 3 0 -3"/>
<path stroke="red" d="M774 259l0 3 0 -3 0 3 0 -3 0 3 1 -3 0 3 0 -3 0 3 0 -3 0 3 0 -3 0 3 0 -3 0 2 0 -2 0 2 0 -2 1 2 0 -2 0 2 0 -2 0 2 0 -2 0 2 0 -2 0 2 0 -2 0 2 0 -2 0 2 0 -2 1 2 0 -2 0 2 0 -2 0 2 0 -2 0 2 0 -2 0 2 0 -2 0 2 0 -2 0 2 1 -2 0 2"/>
<path stroke="red" d="M778 261l0 -2 0 2 0 -2 0 2 0 -1 0 1 0 -1 0 1 0 -1 0 1 0 -1 1 1 0 -1 0 1 0 -1 0 1 0 -1 0 1 0 -1 0 1 0 -1 0 1 0 -1 0 1 0 -1 1 1 0 -1 0 1 0 -1 0 1 0 -1 0 1 0 -1 0 1 0 -1 0 1 0 -1 0 1 1 -1 0 1 0 -1 0 1 0 -1 0 1 0 -1 0 1 0 -1"/>
<path stroke="red" d="M781 260l0 1 0 -1 0 1 0 -1 1 1 0 -1 0 1 0 -1 0 1 0 -1 0 1 0 -1 0 1 0 -1 0 1 0 -1 0 1 0 -1 1 1 0 -1 0 1 0 -1 0 1 0 -1 0 1 0 -1 0 1 0 -1 0 1 0 -1 0 1 1 -1 0 1 0 -1 0 1 0 -1 0 1 0 -1 0 1 0 -1 0 1 0 -1 0 1 0 -1 1 1 0 -1 0 1"/>
<path stroke="red" d="M785 261l0 -1 0 1 0 -1 0 1 0 -1 0 1 0 -1 0 1 0 -1 0 1 0 -1 1 1 0 -1 0 1 0 -1 0 1 0 -1 0 1 0 -1 0 1 0 -1 0 1 0 -1 0 1 1 -1 0 1 0 -1 0 1 0 -1 0 1 0 -1 0 1 0 -1 0 1 0 -1 0 1 0 -1 1 1 0 -1 0 1 0 -1 0 1 0 -1 0 1 0 -1 0 1 0 -1"/>
<path stroke="red" d="M788 260l0 1 0 -1 0 1 0 -1 1 1 0 -1 0 1 0 -1 0 1 0 -1 0 1 0 -1 0 1 0 -1 0 1 0 -1 0 1 1 -1 0 1 0 -1 0 1 0 -1 0 1 0 -1 0 1 0 -1 0 1 0 -1 0 1 0 -1 1 1 0 -1 0 1 0 -1 0 1 0 -1 0 1 0 -1 0 1 0 -1 0 1 0 -1 0 1 0 -1 1 1 0 -1 0 1"/>
<path stroke="red" d="M792 261l0 -1 0 1 0 -1 0 1 0 -1 0 1 0 -1 0 1 0 -1 0 1 1 -1 0 1 0 -1 0 1 0 -1 0 1 0 -1 0 1 0 -1 0 1 0 -1 0 1 0 -1 1 1 0 -1 0 1 0 -1 0 1 0 -1 0 1 0 -1 0 1 0 -1 0 1 0 -1 0 1 0 -1 1 1 0 -1 0 1 0 -1 0 1 0 -1 0 1 0 -1 0 1 0 -1"/>
<path stroke="red" d="M795 260l0 1 0 -1 0 1 1 -1 0 1 0 -1 0 1 0 -1 0 1 0 -1 0 1 0 -1 0 1 0 -1 0 1 0 -1 1 1 0 -1 0 1 0 -1 0 1 0 -1 0 1 0 -1 0 1 0 -1 0 1 0 -1 0 1 0 -1 1 1 0 -1 0 1 0 -1 0 1 0 -1 0 1 0 -1 0 1 0 -1 0 1 0 -1 0 1 1 -1 0 1 0 -1 0 1"/>
<path stroke="red" d="M799 261l0 -1 0 1 0 -1 0 1 0 -1 0 1 0 -1 0 1 0 -1 1 1 0 -1 0 1 0 -1 0 1 0 -1 0 1 0 -1 0 1 0 -1 0 1 0 -1 0 1 0 -1 1 1 0 -1 0 1 0 -1 0 1 0 -1 0 1 0 -1 0 1 0 -1 0 1 0 -1 0 1 1 -1 1 0 1 0 1 0 1 0 1 0 1 0 1 0 1 0 0 -106 0 -47"/>
<path stroke="red" d="M810 107l0 -37 0 15 0 50 0 -2 0 -11 0 -7 0 -9 0 1 0 -3 0 2 1 -3 0 3 0 -3 0 3 0 -3 0 3 0 -3 0 3 0 -3 0 3 0 -3 0 3 0 -3 1 3 0 -3 0 3 0 -3 0 3 0 -3 0 3 0 -3 0 3 0 -3 0 3 0 -3 0 3 0 -3 1 3 0 -3 0 3 0 -3 0 3 0 -2 0 2 0 -2 0 2"/>
<path stroke="red" d="M813 106l0 -2 0 2 0 -2 0 2 1 -2 0 2 0 -2 0 2 0 -2 0 2 0 -2 0 2 0 -2 0 2 0 -2 0 2 0 -2 1 2 0 -2 0 2 0 -2 0 1 0 -1 0 1 0 -1 0 1 0 -1 0 1 0 -1 0 1 0 -1 1 1 0 -1 0 1 0 -1 0 1 0 -1 0 1 0 -1 0 1 0 -1 0 1 0 -1 0 1 1 -1 0 1 0 -1"/>
<path stroke="red" d="M817 104l0 1 0 -1 0 1 0 -1 0 1 0 -1 0 1 0 -1 0 1 0 -1 1 1 0 -1 0 1 0 -1 0 1 0 -1 0 1 0 -1 0 1 0 -1 0 1 0 -1 0 1 0 -1 1 1 0 -1 0 1 0 -1 0 1 0 -1 0 1 0 -1 0 1 0 -1 0 1 0 -1 0 1 1 -1 0 1 0 -1 0 1 0 -1 0 1 0 -1 0 1 0 -1 0 1"/>
<path stroke="red" d="M820 105l0 -1 0 1 0 -1 1 1 0 -1 0 1 0 -1 0 1 0 -1 0 1 0 -1 0 1 0 -1 0 1 0 -1 0 1 0 -1 1 1 0 -1 0 1 0 -1 0 1 0 -1 0 1 0 -1 0 1 0 -1 0 1 0 -1 0 1 1 -1 0 1 0 -1 0 1 0 -1 0 1 0 -1 0 1 0 -1 0 1 0 -1 0 1 0 -1 1 1 0 -1 0 1 0 -1"/>
<path stroke="red" d="M824 104l0 1 0 -1 0 1 0 -1 0 1 0 -1 0 1 0 -1 0 1 0 -1 1 1 0 -1 0 1 0 -1 0 1 0 -1 0 1 0 -1 0 1 0 -1 0 1 0 -1 0 1 1 -1 0 1 0 -1 0 1 0 -1 0 1 0 -1 0 1 0 -1 0 1 0 -1 0 1 0 -1 1 1 0 -1 0 1 0 -1 0 1 0 -1 0 1 0 -1 0 1 0 -1 0 1"/>
<path stroke="red" d="M827 105l0 -1 0 1 0 -1 1 1 0 -1 0 1 0 -1 0 1 0 -1 0 1 0 -1 0 1 0 -1 0 1 0 -1 0 1 1 -1 0 1 0 -1 0 1 0 -1 0 1 0 -1 0 1 0 -1 0 1 0 -1 0 1 0 -1 1 1 0 -1 0 1 0 -1 0 1 0 -1 0 1 0 -1 0 1 0 -1 0 1 0 -1 0 1 0 -1 1 1 0 -1 0 1 0 -1"/>
<path stroke="red" d="M831 104l0 1 0 -1 0 1 0 -1 0 1 0 -1 0 1 0 -1 0 1 1 -1 0 1 0 -1 0 1 0 -1 0 1 0 -1 0 1 0 -1 0 1 0 -1 0 1 0 -1 1 1 0 -1 0 1 0 -1 0 1 0 -1 0 1 0 -1 0 1 0 -1 0 1 0 -1 0 1 0 -1 1 1 0 -1 0 1 0 -1 0 1 0 -1 0 1 0 -1 0 1 0 -1 0 1"/>
<path stroke="red" d="M834 105l0 -1 0 1 1 -1 0 1 0 -1 0 1 0 -1 0 1 0 -1 0 1 0 -1 0 1 0 -1 0 1 0 -1 1 1 0 -1 0 1 0 -1 0 1 0 -1 0 1 0 -1 0 1 0 -1 0 1 0 -1 0 1 0 -1 1 1 0 -1 0 1 0 -1 0 1 0 -1 0 1 0 -1 0 1 0 -1 0 1 0 -1 0 1 1 -1 0 1 0 -1 0 1 0 -1"/>
<path stroke="red" d="M838 104l0 1 0 -1 0 1 0 -1 0 1 0 -1 0 1 0 -1 1 1 0 -1 0 1 0 -1 0 1 0 -1 0 1 0 -1 0 1 0 -1 0 1 0 -1 0 1 0 -1 1 1 0 -1 0 1 0 -1 0 1 0 -1 0 1 0 -1 0 1 0 -1 0 1 0 -1 0 1 1 -1 0 1 0 -1 0 1 0 -1 0 1 0 -1 0 1 0 -1 0 1 0 -1 0 1"/>
<path stroke="red" d="M841 105l0 -1 1 1 0 -1 0 1 0 -1 0 1 0 -1 0 1 0 -1 0 1 0 -1 0 1 0 -1 0 1 0 -1 1 1 0 -1 0 1 0 -1 0 1 0 -1 0 1 0 -1 0 1 0 -1 0 1 0 -1 0 1 1 -1 0 1 0 -1 0 1 0 -1 0 1 0 -1 0 1 0 -1 0 1 0 -1 0 1 1 0 1 0 1 0 1 0 0 116 0 8 0 52"/>
<path stroke="red" d="M848 281l0 13 0 -138 0 1 0 6 0 3 0 3 0 -1 0 1 0 -1 0 2 0 -1 0 1 0 -1 0 1 0 -1 1 1 0 -1 0 1 0 -1 0 1 0 -1 0 1 0 -1 0 1 0 -1 0 1 0 -1 0 1 1 -1 0 1 0 -1 0 1 0 -1 0 1 0 -1 0 1 0 -1 0 1 0 -1 0 1 0 -1 1 1 0 -1 0 1 0 -1 0 1 0 -1"/>
<path stroke="red" d="M851 169l0 1 0 -1 0 1 0 -1 0 1 0 -1 0 1 0 -1 1 1 0 -1 0 1 0 -1 0 1 0 -1 0 1 0 -1 0 1 0 -1 0 1 0 -1 0 1 1 -1 0 1 0 -1 0 1 0 -1 0 1 0 -1 0 1 0 -1 0 1 0 -1 0 1 0 -1 1 1 0 -1 0 1 0 -1 0 1 0 -1 0 1 0 -1 0 1 0 -1 0 1 0 -1 0 1"/>
<path stroke="red" d="M854 170l0 -1 1 1 0 -1 0 1 0 -1 0 1 0 -1 0 1 0 -1 0 1 0 -1 0 1 0 -1 0 1 1 -1 1 0 1 0 1 0 1 0 1 0 1 0 1 0 1 0 1 0 1 0 1 0 1 0 1 0 1 0 1 0 1 0 1 0 1 0 1 0 1 0 1 0 1 0 1 0 1 0 1 0 1 0 1 0 1 0 1 0 0 111 0 8 0 52 0 11 0 -134"/>
<path stroke="red" d="M885 217l0 1 0 4 0 1 0 3 0 -1 0 1 1 -1 0 2 0 -2 0 2 0 -2 0 2 0 -2 0 2 0 -2 0 2 0 -2 0 2 0 -2 1 2 0 -2 0 1 0 -1 0 1 0 -1 0 1 0 -1 0 1 0 -1 0 1 0 -1 0 1 0 -1 1 1 0 -1 0 1 0 -1 0 1 0 -1 0 1 0 -1 0 1 0 -1 0 1 0 -1 0 1 1 -1 0 1"/>
<path stroke="red" d="M889 226l0 -1 0 1 0 -1 0 1 0 -1 0 1 0 -1 0 1 1 0 1 0 1 0 1 0 1 0 1 0 1 0 1 0 1 0 1 0 1 0 1 0 1 0 1 0 1 0 1 0 1 0 1 0 1 0 1 0 1 0 1 0 1 0 1 0 1 0 1 0 1 0 1 0 1 0 1 0 1 0 1 0 1 0 1 0 0 113 0 8 0 52 0 8 0 -136 0 2 0 2 0 -1"/>
<path stroke="red" d="M923 274l0 2 0 -1 0 1 0 -1 0 1 0 -1 0 1 0 -1 1 1 0 -1 0 1 0 -1 0 1 0 -1 0 1 0 -1 0 1 0 -1 0 1 0 -1 0 1 1 -1 0 1 0 -1 0 1 0 -1 0 1 0 -1 0 1 0 -1 0 1 0 -1 0 1 0 -1 1 1 0 -1 0 1 0 -1 0 1 0 -1 0 1 0 -1 0 1 0 -1 0 1 0 -1 0 1"/>
<path stroke="red" d="M926 276l0 -1 1 1 0 -1 0 1 0 -1 0 1 0 -1 0 1 0 -1 0 1 0 -1 0 1 0 -1 0 1 1 -1 0 1 0 -1 0 1 0 -1 0 1 0 -1 0 1 0 -1 0 1 0 -1 0 1 0 -1 1 1 0 -1 0 1 0 -1 0 1 0 -1 0 1 0 -1 0 1 0 -1 0 1 0 -1 0 1 0 -1 1 1 0 -1 0 1 0 -1 0 1 0 -1"/>
<path stroke="red" d="M930 275l0 1 0 -1 0 1 0 -1 0 1 0 -1 0 1 1 -1 0 1 0 -1 0 1 0 -1 0 1 0 -1 0 1 0 -1 0 1 0 -1 0 1 0 -1 1 1 0 -1 0 1 0 -1 0 1 0 -1 0 1 0 -1 0 1 0 -1 0 1 0 -1 0 1 0 -1 1 1 0 -1 0 1 0 -1 0 1 0 -1 0 1 0 -1 0 1 0 -1 0 1 0 -1 0 1"/>
<path stroke="red" d="M933 276l1 -1 0 1 0 -1 0 1 0 -1 0 1 0 -1 0 1 0 -1 0 1 0 -1 0 1 0 -1 1 1 0 -1 0 1 0 -1 0 1 0 -1 0 1 0 -1 0 1 0 -1 0 1 0 -1 0 1 0 -1 1 1 0 -1 0 1 0 -1 0 1 0 -1 0 1 0 -1 0 1 0 -1 0 1 0 -1 0 1 1 -1 0 1 0 -1 0 1 0 -1 0 1 0 -1"/>
<path stroke="red" d="M937 275l1 0 1 0 1 0 1 0 1 0 1 0 1 0 1 0 1 0 1 0 1 0 1 0 1 0 1 0 1 0 1 0 1 0 1 0 1 0 1 0 1 0 1 0 1 0"/>
</svg>
