<?xml version="1.0" standalone="yes"?>
<!DOCTYPE svg PUBLIC "-//W3C//DTD SVG 1.1//EN"
 "http://www.w3.org/Graphics/SVG/1.1/DTD/svg11.dtd">
<svg xmlns="http://www.w3.org/2000/svg" version="1.1"
  width="100%" height="100%" viewBox="0 0 1024 768"
  style="fill: none; font-family: Helvetica;
 font: Helvetica;
">

<!-- Creator: NGspice -->

<rect x="0" y="0" width="1024" height="768" fill="white" stroke="none"/>
<text stroke="none" fill="black" font-size="16" x="358" y="752">
time
</text>
<text stroke="none" fill="black" font-size="16" x="10" y="16">
tran1: current comparator simulation
</text>
<path stroke="black" d="M50 712l0 -649"/>
<text stroke="none" fill="black" font-size="16" x="35" y="728">
0.0
</text>
<path stroke="black" stroke-dasharray="1,2" d="M204 712l0 -649"/>
<text stroke="none" fill="black" font-size="16" x="184" y="728">
20.0
</text>
<path stroke="black" stroke-dasharray="1,2" d="M358 712l0 -649"/>
<text stroke="none" fill="black" font-size="16" x="338" y="728">
40.0
</text>
<path stroke="black" stroke-dasharray="1,2" d="M512 712l0 -649"/>
<text stroke="none" fill="black" font-size="16" x="492" y="728">
60.0
</text>
<path stroke="black" stroke-dasharray="1,2" d="M666 712l0 -649"/>
<text stroke="none" fill="black" font-size="16" x="646" y="728">
80.0
</text>
<path stroke="black" stroke-dasharray="1,2" d="M820 712l0 -649"/>
<text stroke="none" fill="black" font-size="16" x="795" y="728">
100.0
</text>
<path stroke="black" stroke-dasharray="1,2" d="M974 712l0 -649"/>
<text stroke="none" fill="black" font-size="16" x="949" y="728">
120.0
</text>
<text stroke="none" fill="black" font-size="16" x="614" y="752">
ns
</text>
<path stroke="black" stroke-dasharray="1,2" d="M50 712l924 0"/>
<text stroke="none" fill="black" font-size="16" x="8" y="720">
-0.2
</text>
<path stroke="black" d="M50 653l924 0"/>
<text stroke="none" fill="black" font-size="16" x="18" y="661">
0.0
</text>
<path stroke="black" stroke-dasharray="1,2" d="M50 594l924 0"/>
<text stroke="none" fill="black" font-size="16" x="18" y="602">
0.2
</text>
<path stroke="black" stroke-dasharray="1,2" d="M50 535l924 0"/>
<text stroke="none" fill="black" font-size="16" x="18" y="543">
0.4
</text>
<path stroke="black" stroke-dasharray="1,2" d="M50 476l924 0"/>
<text stroke="none" fill="black" font-size="16" x="18" y="484">
0.6
</text>
<path stroke="black" stroke-dasharray="1,2" d="M50 417l924 0"/>
<text stroke="none" fill="black" font-size="16" x="18" y="425">
0.8
</text>
<path stroke="black" stroke-dasharray="1,2" d="M50 358l924 0"/>
<text stroke="none" fill="black" font-size="16" x="18" y="366">
1.0
</text>
<path stroke="black" stroke-dasharray="1,2" d="M50 299l924 0"/>
<text stroke="none" fill="black" font-size="16" x="18" y="307">
1.2
</text>
<path stroke="black" stroke-dasharray="1,2" d="M50 240l924 0"/>
<text stroke="none" fill="black" font-size="16" x="18" y="248">
1.4
</text>
<path stroke="black" stroke-dasharray="1,2" d="M50 181l924 0"/>
<text stroke="none" fill="black" font-size="16" x="18" y="189">
1.6
</text>
<path stroke="black" stroke-dasharray="1,2" d="M50 122l924 0"/>
<text stroke="none" fill="black" font-size="16" x="18" y="130">
1.8
</text>
<path stroke="black" stroke-dasharray="1,2" d="M50 63l924 0"/>
<text stroke="none" fill="black" font-size="16" x="18" y="71">
2.0
</text>
<text stroke="none" fill="black" font-size="16" x="10" y="32">
V
</text>
<path stroke="red" d="M462 23l46 0"/>
<text stroke="none" fill="black" font-size="16" x="518" y="32">
out
</text>
<path stroke="red" d="M50 122l1 0 1 0 1 0 1 0 1 0 1 0 1 0 1 0 1 0 1 0 1 0 1 0 1 0 1 0 1 0 1 0 1 0 1 0 1 0 1 0 1 0 1 0 1 0 1 0 1 0 1 0 1 0 1 0 1 0 1 0 1 0 1 0 1 0 1 0 1 0 1 0 1 0 1 0 1 0 1 0 1 0 1 0 1 0 1 0 1 0 1 0 1 0 1 0 1 0 1 0 1 0 1 0 1 0"/>
<path stroke="red" d="M103 122l1 0 1 0 1 0 1 0 1 0 1 0 1 0 1 0 1 0 1 0 1 0 1 0 1 0 1 0 1 0 1 0 1 0 1 0 1 0 1 0 1 0 1 0 1 0 1 0 1 0 1 0 1 0 1 0 1 0 1 0 1 0 1 0 1 0 1 0 1 0 1 0 1 0 1 0 1 0 1 0 1 0 1 0 1 0 1 0 1 0 1 0 1 0 1 0 1 0 1 0 1 0 1 0 1 0"/>
<path stroke="red" d="M156 122l1 0 1 0 1 0 1 0 1 0 1 0 1 0 1 0 1 0 1 0 1 0 1 0 1 0 1 0 1 0 1 0 1 0 1 0 1 0 1 0 1 0 1 0 1 0 1 0 1 0 1 0 1 0 1 0 1 0 1 0 1 0 1 0 1 0 1 0 1 0 1 0 1 0 1 0 1 0 1 0 1 0 1 0 1 0 1 0 1 0 1 0 1 0 1 0 1 0 1 0 1 0 1 0 1 0"/>
<path stroke="red" d="M209 122l1 0 1 0 1 0 1 0 1 0 1 0 1 0 1 0 1 0 1 0 1 0 1 0 1 0 1 0 1 0 1 0 1 0 1 0 1 0 1 0 1 0 1 0 1 0 1 0 1 0 1 0 1 0 1 0 1 0 1 0 1 0 1 0 1 0 1 0 1 0 1 0 1 0 1 0 1 0 1 0 1 0 1 0 1 0 1 0 1 0 1 0 1 0 1 0 1 0 1 0 1 0 1 0 1 0"/>
<path stroke="red" d="M262 122l1 0 1 0 1 0 1 0 1 0 1 0 1 0 1 0 1 0 1 0 1 0 1 0 1 0 1 0 1 0 1 0 1 0 1 0 1 0 1 0 1 0 1 0 1 0 1 0 1 0 1 0 1 0 1 0 1 0 1 0 1 0 1 0 1 0 1 0 1 0 1 0 1 0 1 0 1 0 1 0 1 0 1 0 1 0 1 0 1 0 1 0 1 0 1 0 1 0 1 0 1 0 1 0 1 0"/>
<path stroke="red" d="M315 122l1 0 1 0 1 0 1 0 1 0 1 0 1 0 1 0 1 0 1 0 1 0 1 0 1 0 1 0 1 0 1 0 1 0 1 0 1 0 1 0 1 0 1 0 1 0 1 0 1 0 1 0 1 0 1 0 1 0 1 0 1 0 1 0 1 0 1 0 1 0 1 0 1 0 1 0 1 0 1 0 1 0 1 0 1 0 1 0 0 -1 0 -1 0 -1 1 0 0 1 0 1 0 1 0 2"/>
<path stroke="red" d="M360 124l0 3 0 3 1 3 0 5 0 5 0 5 0 7 0 7 0 8 0 9 0 9 0 10 0 11 0 11 0 12 1 12 0 13 0 13 0 14 0 14 0 15 0 15 0 16 0 15 0 16 0 17 0 16 0 17 1 17 0 18 0 17 0 17 0 17 0 17 0 16 0 15 0 15 0 12 0 12 0 9 0 9 1 7 0 5 0 5 0 4 0 3"/>
<path stroke="red" d="M364 640l0 3 0 2 0 2 0 1 0 1 0 1 0 1 1 0 0 1 0 1 1 0 1 0 1 0 1 0 1 0 1 0 1 0 1 0 1 0 1 0 1 0 1 0 1 0 1 0 1 0 1 0 1 0 1 0 1 0 1 0 1 0 1 0 1 0 1 0 1 0 1 0 1 0 1 0 1 0 1 0 1 0 1 0 1 0 1 0 1 0 1 0 0 -1 1 0 0 -1 0 -1 1 0 0 -1"/>
<path stroke="red" d="M403 649l0 -1 1 -1 0 -1 0 -1 1 -1 0 -1 0 -1 1 -1 0 -1 0 -1 1 -1 0 -1 0 -1 0 -1 1 0 0 -1 0 -1 1 -1 0 -1 0 -1 1 0 0 -1 0 -1 0 -1 1 0 0 -1 0 -1 1 0 0 -1 0 -1 1 0 0 -1 0 -1 1 0 0 -1 1 0 0 -1 0 -1 1 0 0 -1 1 0 0 -1 1 0 0 -1 1 0"/>
<path stroke="red" d="M419 615l1 0 0 -1 1 0 1 0 0 -1 1 0 1 0 1 0 1 -1 1 0 1 0 1 0 1 0 1 0 1 0 1 0 1 0 1 0 0 -1 1 -1 0 -1 0 -2 0 -2 0 -3 0 -3 0 -4 0 -5 0 -5 0 -5 0 -7 0 -6 0 -8 1 -8 0 -8 0 -9 0 -10 0 -10 0 -11 0 -11 0 -12 0 -12 0 -13 0 -13 0 -13"/>
<path stroke="red" d="M437 429l0 -14 1 -14 0 -14 0 -14 0 -15 0 -14 0 -15 0 -14 0 -15 0 -14 0 -13 0 -13 0 -13 0 -12 1 -11 0 -10 0 -9 0 -9 0 -8 0 -7 0 -7 0 -6 0 -5 0 -5 0 -4 0 -4 0 -3 1 -3 0 -3 0 -2 0 -2 0 -2 0 -2 0 -1 0 -1 0 -1 0 -1 0 -1 0 -1"/>
<path stroke="red" d="M440 127l0 -1 1 0 0 -1 0 -1 0 -1 1 0 0 -1 1 0 1 0 1 0 1 0 1 0 1 0 1 0 1 0 1 0 1 0 1 0 1 0 1 0 1 0 1 0 1 0 1 0 1 0 1 0 1 0 1 0 1 0 1 0 1 0 1 0 1 0 1 0 1 0 1 0 1 0 1 0 1 0 1 0 1 0 1 0 1 0 1 0 1 0 1 0 1 0 1 0 1 0 1 0 1 0 1 0"/>
<path stroke="red" d="M487 122l1 0 1 0 1 0 1 0 1 0 1 0 1 0 1 0 1 0 1 0 1 0 1 0 1 0 1 0 1 0 1 0 1 0 1 0 1 0 1 0 1 0 1 0 1 0 1 0 1 0 1 0 1 0 1 0 1 0 1 0 1 0 1 0 1 0 1 0 1 0 1 0 1 0 1 0 1 0 1 0 1 0 1 0 1 0 1 0 1 0 1 0 1 0 1 0 1 0 1 0 1 0 1 0 1 0"/>
<path stroke="red" d="M540 122l1 0 1 0 1 0 1 0 1 0 1 0 1 0 1 0 1 0 1 0 1 0 1 0 1 0 1 0 1 0 1 0 1 0 1 0 1 0 1 0 1 0 1 0 1 0 1 0 1 0 1 0 1 0 1 0 1 0 1 0 1 0 1 0 1 0 1 0 1 0 1 0 1 0 1 0 1 0 1 0 1 0 1 0 1 0 1 0 1 0 1 0 1 0 1 0 1 0 1 0 0 -1 1 0 0 -1"/>
<path stroke="red" d="M591 120l1 0 0 1 1 0 0 1 0 1 0 1 0 1 0 1 0 2 0 1 1 1 0 1 0 2 0 1 0 2 0 2 0 2 0 2 0 2 0 2 0 3 0 2 0 3 1 3 0 3 0 3 0 3 0 4 0 4 0 3 0 4 0 4 0 5 0 4 0 4 0 5 1 5 0 5 0 4 0 6 0 5 0 5 0 5 0 6 0 5 0 6 0 6 0 5 0 6 1 6 0 6 0 6 0 6"/>
<path stroke="red" d="M597 296l0 6 0 7 0 6 0 6 0 6 0 7 0 6 0 7 0 6 1 7 0 6 0 7 0 7 0 6 0 7 0 7 0 6 0 7 0 7 0 7 0 6 0 7 1 7 0 7 0 6 0 7 0 7 0 7 0 6 0 7 0 7 0 7 0 6 0 7 0 6 1 7 0 6 0 7 0 6 0 7 0 6 0 6 0 6 0 6 0 5 0 5 0 5 0 5 1 5 0 4 0 4 0 3 0 4"/>
<path stroke="red" d="M601 624l0 3 0 2 0 3 0 2 0 2 0 2 0 1 0 2 1 1 0 1 0 1 0 1 0 1 0 1 0 1 0 1 0 1 1 0 0 1 1 0 0 1 1 0 1 0 1 0 1 0 1 0 1 0 1 0 1 0 1 0 1 0 1 0 1 0 1 0 1 0 1 0 1 0 1 0 1 0 1 0 1 0 1 0 1 0 1 0 1 0 1 0 1 0 0 1 1 0 1 0 1 0 1 0 1 0"/>
<path stroke="red" d="M635 653l1 0 1 0 1 0 1 0 1 0 1 0 1 0 1 0 1 0 1 0 1 0 1 0 1 0 1 0 1 0 1 0 1 0 1 0 1 0 1 0 1 0 1 0 1 0 1 0 1 0 1 0 1 0 1 0 1 0 1 0 1 0 1 0 1 0 1 0 1 0 1 0 1 0 1 0 1 0 1 0 1 0 1 0 1 0 1 0 1 0 1 0 1 0 1 0 1 0 1 0 1 0 1 0 1 0"/>
<path stroke="red" d="M688 653l1 0 1 0 1 0 1 0 1 0 1 0 1 0 1 0 1 0 1 0 1 0 1 0 1 0 1 0 1 0 1 0 1 0 1 0 1 0 1 0 1 0 1 0 1 0 1 0 1 0 1 0 1 0 1 0 1 0 1 0 1 0 1 0 1 0 1 0 1 0 1 0 1 0 1 0 1 0 1 0 1 0 1 0 1 0 1 0 1 0 1 0 1 0 1 0 1 0 1 0 1 0 1 0 1 0"/>
<path stroke="red" d="M741 653l1 0 1 0 1 0 1 0 1 0 1 0 1 0 1 0 1 0 1 0 1 0 1 0 1 0 1 0 1 0 1 0 1 0 1 0 1 0 1 0 1 0 1 0 1 0 1 0 1 0 1 0 1 0 1 0 1 0 1 0 1 0 1 0 1 0 1 0 1 0 1 0 1 0 1 0 1 0 1 0 1 0 1 0 1 0 1 0 1 0 1 0 1 0 1 0 1 0 1 0 1 0 1 0 1 0"/>
<path stroke="red" d="M794 653l1 0 1 0 1 0 1 0 1 0 1 0 1 0 1 0 1 0 1 0 1 0 1 0 1 0 1 0 1 0 1 0 1 0 1 0 1 0 1 0 1 0 1 0 1 0 1 0 1 0 1 0 1 0 1 0 1 0 1 0 1 0 1 0 1 0 1 0 1 0 1 0 1 0 1 0 1 0 1 0 1 0 1 0 1 0 1 0 1 0 1 0 1 0 1 0 1 0 1 0 1 0 1 0 1 0"/>
<path stroke="red" d="M847 653l1 0 1 0 1 0 1 0 1 0 1 0 1 0 1 0 1 0 1 0 1 0 1 0 1 0 1 0 1 0 1 0 1 0 1 0 1 0 1 0 1 0 1 0 1 0 1 0 1 0 1 0 1 0 1 0 1 0 1 0 1 0 1 0 1 0 1 0 1 0 1 0 1 0 1 0 1 0 1 0 1 0 1 0 1 0 1 0 1 0 1 0 1 0 1 0 1 0 1 0 1 0 1 0 1 0"/>
<path stroke="red" d="M900 653l1 0 1 0 1 0 1 0 1 0 1 0 1 0 1 0 1 0 1 0 1 0 1 0 1 0 1 0 1 0 1 0 1 0 1 0 1 0 1 0 1 0 1 0 1 0 1 0 1 0 1 0 1 0 1 0 1 0 1 0 1 0 1 0 1 0 1 0 1 0 1 0 1 0 1 0 1 0 1 0 1 0 1 0 1 0 1 0 1 0 1 0 1 0 1 0 1 0 1 0 1 0 1 0 1 0"/>
<path stroke="red" d="M953 653l1 0 1 0 1 0 1 0 1 0 1 0 1 0 1 0 1 0 1 0 1 0 1 0 1 0 1 0 1 0 1 0 1 0 1 0 1 0 1 0 1 0"/>
</svg>
